<svg width="24" height="25" viewBox="0 0 24 25" fill="none" xmlns="http://www.w3.org/2000/svg">
<g clip-path="url(#clip0_1_1811)">
<path d="M6.12756 2.80371C8.30811 0.589604 11.7221 -0.189083 14.7506 0.864258C17.805 1.92674 20.0426 4.79803 20.234 7.97461C20.2493 8.22329 20.2918 8.38187 20.3776 8.49609C20.4627 8.6094 20.6019 8.69446 20.8453 8.76855H20.8444C21.8357 9.06172 22.4488 9.79913 22.524 10.833C22.6543 12.624 22.6543 14.4228 22.524 16.2139C22.4818 16.7881 22.2797 17.2596 21.9469 17.624C21.6148 17.9877 21.1572 18.2392 20.6129 18.3828C20.4619 18.4225 20.3767 18.4703 20.3268 18.5293C20.2903 18.5724 20.2654 18.6301 20.2545 18.7148L20.2487 18.8096C20.2449 19.0058 20.2265 19.202 20.194 19.3955C19.9906 20.6413 19.547 21.5727 18.8024 22.2207C18.059 22.8675 17.0279 23.2199 15.6715 23.3379L15.6725 23.3389C15.4955 23.3588 15.3174 23.3676 15.1393 23.3662H15.1364C14.9796 23.3603 14.8873 23.3868 14.8297 23.4355C14.7726 23.484 14.7288 23.5725 14.7106 23.7422L14.7096 23.7432C14.6805 24.0049 14.5719 24.2144 14.4 24.3594C14.2292 24.5033 14.0042 24.5768 13.7526 24.583C12.7952 24.6053 11.8366 24.6053 10.8785 24.583V24.582C10.5815 24.5762 10.3306 24.4789 10.149 24.2988C9.96767 24.1189 9.86404 23.8663 9.84729 23.5664C9.8194 23.0762 9.81941 22.5849 9.84729 22.0947V22.0938C9.86563 21.7918 9.96497 21.5422 10.1461 21.3662C10.3274 21.1902 10.5799 21.0985 10.8844 21.0918C11.8251 21.0699 12.7656 21.073 13.7057 21.0918C13.9831 21.0973 14.2246 21.1743 14.403 21.3311C14.5823 21.4888 14.6873 21.718 14.7076 22.0059V22.0068C14.719 22.1693 14.7574 22.2233 14.7926 22.2461C14.8365 22.2742 14.914 22.283 15.0641 22.2676L15.61 22.2119C16.1517 22.1527 16.6785 22.0724 17.1862 21.8779C17.7936 21.6452 18.33 21.152 18.694 20.5547C19.058 19.9572 19.2435 19.2659 19.1637 18.6455C19.1559 18.5848 19.1405 18.5552 19.1295 18.541C19.1202 18.529 19.1096 18.522 19.0914 18.5176C19.0701 18.5124 19.0427 18.5112 19.0035 18.5127L18.8746 18.5156C18.6508 18.5045 18.4732 18.4943 18.3365 18.4707C18.1999 18.447 18.0863 18.4068 18.0045 18.3223C17.9226 18.2374 17.8874 18.1225 17.8698 17.9854C17.8522 17.8484 17.8505 17.6715 17.8502 17.4482V9.57031C17.8502 9.36605 17.8534 9.19995 17.8737 9.06836C17.894 8.93628 17.9332 8.82519 18.0133 8.74219C18.0939 8.65881 18.2031 8.61677 18.3346 8.59473C18.4653 8.57284 18.6309 8.56882 18.8356 8.56934L18.9459 8.56445C19.0397 8.55569 19.0864 8.53491 19.1119 8.50879C19.1451 8.47476 19.1695 8.40384 19.1608 8.23047C18.9767 4.55994 15.9726 1.66445 12.1276 1.48926C8.62528 1.32173 5.34648 4.08717 4.88147 7.6084L4.84729 7.86621C4.82222 8.05597 4.8046 8.19082 4.80237 8.29102C4.80011 8.39302 4.81553 8.43557 4.83264 8.45703C4.84904 8.47741 4.88436 8.49937 4.9801 8.51562C5.07531 8.53176 5.20767 8.53843 5.39514 8.54688C5.62501 8.55689 5.81094 8.61711 5.93811 8.75C6.06534 8.88307 6.11682 9.0718 6.11682 9.2998V17.752C6.11679 17.9916 6.06577 18.1923 5.93323 18.3301C5.79923 18.4693 5.60162 18.5239 5.3551 18.5156H5.35413C5.06996 18.5053 4.78931 18.5154 4.49768 18.5156C4.28136 18.5158 4.06236 18.5099 3.84241 18.4844L3.62268 18.4521C2.99152 18.3396 2.46993 18.0814 2.09241 17.6855C1.71453 17.2893 1.48748 16.7619 1.43518 16.1221L1.4137 15.7949C1.37866 15.0684 1.41682 14.3332 1.42053 13.6123L1.38147 13.6162V11.4717L1.39124 11.1924C1.43026 10.5585 1.57858 10.053 1.87366 9.65137C2.2112 9.19201 2.731 8.88248 3.46155 8.66406L3.55823 8.62598C3.58414 8.61257 3.60418 8.59881 3.61975 8.58496C3.64992 8.55811 3.66799 8.52776 3.67932 8.49316C3.69114 8.4569 3.69664 8.41447 3.69885 8.36328C3.69994 8.33791 3.70029 8.31222 3.70081 8.28418C3.70131 8.25646 3.70189 8.22616 3.70374 8.19629C3.82005 6.20006 4.58634 4.48855 5.92053 3.02246L6.12756 2.80371ZM13.3824 22.1973C12.6514 22.2077 11.9268 22.1973 11.2028 22.1973C11.1602 22.1973 11.125 22.1957 11.0885 22.1973C11.0532 22.1988 11.0269 22.2031 11.0074 22.21C10.9898 22.2162 10.9807 22.2233 10.9752 22.2314C10.9692 22.2406 10.9604 22.2613 10.9606 22.3047V22.3057C10.9606 22.4094 10.951 22.5156 10.941 22.6182C10.9309 22.7225 10.9203 22.8231 10.9156 22.9209C10.9064 23.117 10.924 23.2833 11.0094 23.417C11.0534 23.4855 11.1406 23.5088 11.3043 23.498C11.3834 23.4928 11.464 23.4814 11.5533 23.4717C11.6389 23.4624 11.7302 23.4546 11.816 23.4619L11.819 23.4629C11.9671 23.4787 12.1161 23.4678 12.276 23.4678H12.6071L12.6031 23.4707H12.691C12.9738 23.4707 13.1767 23.4697 13.3258 23.4531C13.4762 23.4363 13.5475 23.4049 13.5875 23.3623C13.6277 23.3196 13.6551 23.246 13.6637 23.0947C13.6722 22.9449 13.662 22.7428 13.6481 22.4619C13.6421 22.3324 13.6168 22.2741 13.5875 22.2451C13.5597 22.2175 13.5063 22.1954 13.3834 22.1973H13.3824ZM4.07581 9.65625C3.60692 9.67844 3.22073 9.82272 2.95081 10.0635C2.68252 10.303 2.52122 10.6448 2.51038 11.0801C2.46869 12.7112 2.47284 14.3447 2.51038 15.9795C2.51924 16.3541 2.6455 16.6592 2.85803 16.8877C3.0713 17.117 3.37678 17.2754 3.75159 17.3447H3.75061C3.87802 17.3673 4.01024 17.3717 4.15002 17.375C4.28756 17.3782 4.43422 17.3797 4.57971 17.3965C4.77482 17.4192 4.87133 17.391 4.92249 17.3418C4.97512 17.291 5.01053 17.1891 5.00549 16.9824C4.9781 15.8604 4.9938 14.7426 4.99475 13.6299H4.99182V10.5039C4.99182 10.2526 4.99131 10.0726 4.9762 9.94043C4.96095 9.80727 4.93275 9.74593 4.89612 9.71191C4.85889 9.67737 4.79312 9.65203 4.65491 9.64355C4.51815 9.6352 4.33314 9.64415 4.07581 9.65625ZM18.9762 13.5811L18.9733 13.582C18.9736 14.7281 18.9839 15.8783 18.9664 17.0264C18.9666 17.2017 18.9924 17.2976 19.0367 17.3477C19.075 17.3907 19.1502 17.4238 19.3248 17.4033H19.3258C19.4365 17.3911 19.5461 17.391 19.65 17.3916C19.7558 17.3923 19.8558 17.3932 19.9547 17.3848C20.407 17.3486 20.7713 17.1986 21.025 16.9551C21.2777 16.7125 21.4296 16.369 21.443 15.9277C21.4909 14.3312 21.4898 12.7312 21.4596 11.1328V11.1318C21.4536 10.7418 21.3324 10.4304 21.1217 10.1982C20.9102 9.9652 20.6006 9.80417 20.2057 9.72949V9.72852C20.0704 9.70308 19.93 9.6968 19.7828 9.69238C19.7102 9.6902 19.6348 9.68873 19.5592 9.68555L19.3317 9.66895C19.1577 9.64845 19.0779 9.67619 19.0377 9.7168C18.9944 9.7607 18.9653 9.84991 18.9684 10.0303C18.9893 11.1959 18.9762 12.3633 18.9762 13.5273V13.5811Z" fill="#FA8B02" stroke="#FA8B02" stroke-width="0.2"/>
</g>
<defs>
<clipPath id="clip0_1_1811">
<rect width="24" height="24" fill="white" transform="translate(0 0.5)"/>
</clipPath>
</defs>
</svg>
